{
  "asset": {
    "version": "2.0",
    "generator": "babylon.js glTF exporter for 3dsmax 2019 v20211112.1"
  },
  "extensionsUsed": [
    "KHR_materials_unlit"
  ],
  "scene": 0,
  "scenes": [
    {
      "nodes": [
        0,
        1,
        2,
        3,
        4,
        5,
        6
      ]
    }
  ],
  "nodes": [
    {
      "mesh": 0,
      "translation": [
        -6.28059244,
        1.77189052,
        4.69262075
      ],
      "rotation": [
        0.375431061,
        0.55107373,
        0.64174974,
        0.37884897
      ],
      "scale": [
        61.46701,
        61.4670029,
        61.46701
      ],
      "name": "C210R-001"
    },
    {
      "mesh": 1,
      "translation": [
        -6.127973,
        1.77189052,
        -1.76433825
      ],
      "rotation": [
        0.375431061,
        0.55107373,
        0.64174974,
        0.37884897
      ],
      "scale": [
        61.46701,
        61.4670029,
        61.46701
      ],
      "name": "C210R-002"
    },
    {
      "mesh": 2,
      "translation": [
        4.8665843,
        1.91005254,
        4.83300352
      ],
      "rotation": [
        0,
        0,
        -0.2954724,
        0.9553513
      ],
      "name": "P300R"
    },
    {
      "mesh": 3,
      "translation": [
        4.8494215,
        1.91005254,
        -1.59454989
      ],
      "rotation": [
        0.07866467,
        -0.254346579,
        -0.284808367,
        0.9208713
      ],
      "name": "P300R001"
    },
    {
      "mesh": 4,
      "translation": [
        5.327735,
        1.91005254,
        11.087738
      ],
      "rotation": [
        0.122218341,
        -0.3951687,
        -0.269010425,
        0.8697918
      ],
      "name": "P300R002"
    },
    {
      "mesh": 5,
      "translation": [
        -6.631702,
        -0.09492556,
        11.19298
      ],
      "scale": [
        25.66875,
        39.37008,
        25.66875
      ],
      "name": "pod-base"
    },
    {
      "mesh": 6,
      "translation": [
        -6.63147354,
        1.48717844,
        11.16004
      ],
      "rotation": [
        2.6692538e-8,
        -2.6692538e-8,
        -0.7071067,
        0.7071068
      ],
      "scale": [
        39.37008,
        39.37008,
        39.37008
      ],
      "name": "Menu-"
    }
  ],
  "meshes": [
    {
      "primitives": [
        {
          "attributes": {
            "POSITION": 1,
            "NORMAL": 2,
            "TEXCOORD_0": 3
          },
          "indices": 0,
          "material": 0
        }
      ],
      "name": "C210R-001"
    },
    {
      "primitives": [
        {
          "attributes": {
            "POSITION": 5,
            "NORMAL": 6,
            "TEXCOORD_0": 7
          },
          "indices": 4,
          "material": 0
        }
      ],
      "name": "C210R-002"
    },
    {
      "primitives": [
        {
          "attributes": {
            "POSITION": 9,
            "NORMAL": 10,
            "TEXCOORD_0": 11
          },
          "indices": 8,
          "material": 1
        }
      ],
      "name": "P300R"
    },
    {
      "primitives": [
        {
          "attributes": {
            "POSITION": 13,
            "NORMAL": 14,
            "TEXCOORD_0": 15
          },
          "indices": 12,
          "material": 1
        }
      ],
      "name": "P300R001"
    },
    {
      "primitives": [
        {
          "attributes": {
            "POSITION": 17,
            "NORMAL": 18,
            "TEXCOORD_0": 19
          },
          "indices": 16,
          "material": 1
        }
      ],
      "name": "P300R002"
    },
    {
      "primitives": [
        {
          "attributes": {
            "POSITION": 21,
            "NORMAL": 22,
            "TEXCOORD_0": 23
          },
          "indices": 20,
          "material": 2
        },
        {
          "attributes": {
            "POSITION": 25,
            "NORMAL": 26,
            "TEXCOORD_0": 27
          },
          "indices": 24,
          "material": 3
        }
      ],
      "name": "pod-base"
    },
    {
      "primitives": [
        {
          "attributes": {
            "POSITION": 29,
            "NORMAL": 30,
            "TEXCOORD_0": 31
          },
          "indices": 28,
          "material": 4
        }
      ],
      "name": "Menu-"
    }
  ],
  "accessors": [
    {
      "bufferView": 0,
      "componentType": 5123,
      "count": 1500,
      "type": "SCALAR",
      "name": "accessorIndices"
    },
    {
      "bufferView": 1,
      "componentType": 5126,
      "count": 252,
      "max": [
        0.005740317,
        0.00448144367,
        0.00682910858
      ],
      "min": [
        -0.0187677834,
        -6.174279e-10,
        -0.007284616
      ],
      "type": "VEC3",
      "name": "accessorPositions"
    },
    {
      "bufferView": 1,
      "byteOffset": 3024,
      "componentType": 5126,
      "count": 252,
      "type": "VEC3",
      "name": "accessorNormals"
    },
    {
      "bufferView": 2,
      "componentType": 5126,
      "count": 252,
      "type": "VEC2",
      "name": "accessorUVs"
    },
    {
      "bufferView": 0,
      "byteOffset": 3000,
      "componentType": 5123,
      "count": 1500,
      "type": "SCALAR",
      "name": "accessorIndices"
    },
    {
      "bufferView": 1,
      "byteOffset": 6048,
      "componentType": 5126,
      "count": 252,
      "max": [
        0.005740317,
        0.00448144367,
        0.00682910858
      ],
      "min": [
        -0.0187677834,
        -6.174279e-10,
        -0.007284616
      ],
      "type": "VEC3",
      "name": "accessorPositions"
    },
    {
      "bufferView": 1,
      "byteOffset": 9072,
      "componentType": 5126,
      "count": 252,
      "type": "VEC3",
      "name": "accessorNormals"
    },
    {
      "bufferView": 2,
      "byteOffset": 2016,
      "componentType": 5126,
      "count": 252,
      "type": "VEC2",
      "name": "accessorUVs"
    },
    {
      "bufferView": 0,
      "byteOffset": 6000,
      "componentType": 5123,
      "count": 1428,
      "type": "SCALAR",
      "name": "accessorIndices"
    },
    {
      "bufferView": 1,
      "byteOffset": 12096,
      "componentType": 5126,
      "count": 296,
      "max": [
        0.705874,
        0.508,
        1.91276861e-8
      ],
      "min": [
        -0.564126134,
        -0.508,
        -0.254
      ],
      "type": "VEC3",
      "name": "accessorPositions"
    },
    {
      "bufferView": 1,
      "byteOffset": 15648,
      "componentType": 5126,
      "count": 296,
      "type": "VEC3",
      "name": "accessorNormals"
    },
    {
      "bufferView": 2,
      "byteOffset": 4032,
      "componentType": 5126,
      "count": 296,
      "type": "VEC2",
      "name": "accessorUVs"
    },
    {
      "bufferView": 0,
      "byteOffset": 8856,
      "componentType": 5123,
      "count": 1428,
      "type": "SCALAR",
      "name": "accessorIndices"
    },
    {
      "bufferView": 1,
      "byteOffset": 19200,
      "componentType": 5126,
      "count": 296,
      "max": [
        0.705874,
        0.508,
        1.91276861e-8
      ],
      "min": [
        -0.564126134,
        -0.508,
        -0.254
      ],
      "type": "VEC3",
      "name": "accessorPositions"
    },
    {
      "bufferView": 1,
      "byteOffset": 22752,
      "componentType": 5126,
      "count": 296,
      "type": "VEC3",
      "name": "accessorNormals"
    },
    {
      "bufferView": 2,
      "byteOffset": 6400,
      "componentType": 5126,
      "count": 296,
      "type": "VEC2",
      "name": "accessorUVs"
    },
    {
      "bufferView": 0,
      "byteOffset": 11712,
      "componentType": 5123,
      "count": 1428,
      "type": "SCALAR",
      "name": "accessorIndices"
    },
    {
      "bufferView": 1,
      "byteOffset": 26304,
      "componentType": 5126,
      "count": 296,
      "max": [
        0.705874,
        0.508,
        1.91276861e-8
      ],
      "min": [
        -0.564126134,
        -0.508,
        -0.254
      ],
      "type": "VEC3",
      "name": "accessorPositions"
    },
    {
      "bufferView": 1,
      "byteOffset": 29856,
      "componentType": 5126,
      "count": 296,
      "type": "VEC3",
      "name": "accessorNormals"
    },
    {
      "bufferView": 2,
      "byteOffset": 8768,
      "componentType": 5126,
      "count": 296,
      "type": "VEC2",
      "name": "accessorUVs"
    },
    {
      "bufferView": 0,
      "byteOffset": 14568,
      "componentType": 5123,
      "count": 5184,
      "type": "SCALAR",
      "name": "accessorIndices"
    },
    {
      "bufferView": 1,
      "byteOffset": 33408,
      "componentType": 5126,
      "count": 1350,
      "max": [
        0.5122092,
        0.09014256,
        0.0368581973
      ],
      "min": [
        -0.0323501378,
        0.00246281154,
        -0.5431398
      ],
      "type": "VEC3",
      "name": "accessorPositions"
    },
    {
      "bufferView": 1,
      "byteOffset": 49608,
      "componentType": 5126,
      "count": 1350,
      "type": "VEC3",
      "name": "accessorNormals"
    },
    {
      "bufferView": 2,
      "byteOffset": 11136,
      "componentType": 5126,
      "count": 1350,
      "type": "VEC2",
      "name": "accessorUVs"
    },
    {
      "bufferView": 0,
      "byteOffset": 24936,
      "componentType": 5123,
      "count": 19656,
      "type": "SCALAR",
      "name": "accessorIndices"
    },
    {
      "bufferView": 1,
      "byteOffset": 65808,
      "componentType": 5126,
      "count": 7198,
      "max": [
        0.5141075,
        0.09553959,
        0.04042697
      ],
      "min": [
        -0.04287595,
        -0.00011005377,
        -0.545038164
      ],
      "type": "VEC3",
      "name": "accessorPositions"
    },
    {
      "bufferView": 1,
      "byteOffset": 152184,
      "componentType": 5126,
      "count": 7198,
      "type": "VEC3",
      "name": "accessorNormals"
    },
    {
      "bufferView": 2,
      "byteOffset": 21936,
      "componentType": 5126,
      "count": 7198,
      "type": "VEC2",
      "name": "accessorUVs"
    },
    {
      "bufferView": 0,
      "byteOffset": 64248,
      "componentType": 5123,
      "count": 192,
      "type": "SCALAR",
      "name": "accessorIndices"
    },
    {
      "bufferView": 1,
      "byteOffset": 238560,
      "componentType": 5126,
      "count": 68,
      "max": [
        0.0136467293,
        0.008896955,
        0.0257267728
      ],
      "min": [
        -0.01498842,
        -0.00651097763,
        -0.02605483
      ],
      "type": "VEC3",
      "name": "accessorPositions"
    },
    {
      "bufferView": 1,
      "byteOffset": 239376,
      "componentType": 5126,
      "count": 68,
      "type": "VEC3",
      "name": "accessorNormals"
    },
    {
      "bufferView": 2,
      "byteOffset": 79520,
      "componentType": 5126,
      "count": 68,
      "type": "VEC2",
      "name": "accessorUVs"
    }
  ],
  "bufferViews": [
    {
      "buffer": 0,
      "byteOffset": 0,
      "byteLength": 64632,
      "name": "bufferViewScalar"
    },
    {
      "buffer": 0,
      "byteOffset": 64632,
      "byteLength": 240192,
      "byteStride": 12,
      "name": "bufferViewFloatVec3"
    },
    {
      "buffer": 0,
      "byteOffset": 304824,
      "byteLength": 80064,
      "byteStride": 8,
      "name": "bufferViewFloatVec2"
    }
  ],
  "buffers": [
    {
      "uri": "Products-v1_data.bin",
      "byteLength": 384888
    }
  ],
  "materials": [
    {
      "pbrMetallicRoughness": {
        "baseColorTexture": {
          "index": 0
        },
        "metallicFactor": 0,
        "roughnessFactor": 0.217004091
      },
      "name": "KodakT2"
    },
    {
      "pbrMetallicRoughness": {
        "baseColorTexture": {
          "index": 1
        },
        "metallicFactor": 0,
        "roughnessFactor": 0.249303535
      },
      "name": "P300R"
    },
    {
      "pbrMetallicRoughness": {
        "baseColorFactor": [
          0.509803951,
          0.8431373,
          0.862745166,
          1
        ],
        "metallicFactor": 0,
        "roughnessFactor": 0.450053632
      },
      "emissiveFactor": [
        0.509803951,
        0.8431373,
        0.862745166
      ],
      "name": "Cove1",
      "extensions": {
        "KHR_materials_unlit": {}
      }
    },
    {
      "pbrMetallicRoughness": {
        "baseColorFactor": [
          0.6666667,
          0.6666667,
          0.6666667,
          1
        ],
        "metallicFactor": 0,
        "roughnessFactor": 0.4500535
      },
      "name": "white 4"
    },
    {
      "pbrMetallicRoughness": {
        "baseColorTexture": {
          "index": 2
        },
        "metallicFactor": 0,
        "roughnessFactor": 0.249303535
      },
      "alphaMode": "BLEND",
      "name": "HUD1"
    }
  ],
  "textures": [
    {
      "sampler": 0,
      "source": 0,
      "name": "kodak.png"
    },
    {
      "sampler": 0,
      "source": 1,
      "name": "P300R.jpg"
    },
    {
      "sampler": 0,
      "source": 2,
      "name": "holographic menu1.png"
    }
  ],
  "images": [
    {
      "uri": "Products-v1_img0.png"
    },
    {
      "uri": "Products-v1_img1.jpg"
    },
    {
      "uri": "Products-v1_img2.png"
    }
  ],
  "samplers": [
    {
      "magFilter": 9729,
      "minFilter": 9987
    }
  ]
}